<svg width="18" height="10" viewBox="0 0 18 10" fill="none" xmlns="http://www.w3.org/2000/svg">
<path d="M1.50023 0.249918C1.79229 0.249347 2.07533 0.351066 2.30022 0.537417L9.00023 6.13742L15.7127 0.737418C15.8406 0.633586 15.9877 0.556046 16.1456 0.509256C16.3036 0.462466 16.4692 0.44735 16.633 0.464773C16.7967 0.482198 16.9555 0.531818 17.1 0.610785C17.2446 0.689753 17.3721 0.796509 17.4752 0.924917C17.5791 1.05278 17.6566 1.1999 17.7034 1.35782C17.7502 1.51575 17.7653 1.68136 17.7479 1.84515C17.7304 2.00893 17.6808 2.16766 17.6019 2.3122C17.5229 2.45675 17.4161 2.58426 17.2877 2.68742L9.78772 8.72492C9.56406 8.90877 9.28351 9.00928 8.99397 9.00928C8.70444 9.00928 8.42389 8.90877 8.20022 8.72492L0.700226 2.47492C0.573652 2.36998 0.469023 2.24111 0.392334 2.09567C0.315643 1.95024 0.268396 1.7911 0.253302 1.62738C0.238207 1.46366 0.255562 1.29857 0.304367 1.14157C0.353172 0.984562 0.43247 0.838728 0.537724 0.712418C0.654041 0.569026 0.80068 0.453183 0.967102 0.373215C1.13352 0.293246 1.31559 0.251139 1.50023 0.249918Z" fill="#BDBDBD"/>
</svg>
